<svg width="512" height="511" viewBox="0 0 512 511" fill="none" xmlns="http://www.w3.org/2000/svg">
<rect y="-1" width="512" height="512" rx="100" fill="#27536C"/>
<g filter="url(#filter0_d_3_165)">
<path d="M450.908 256.479C450.391 257.915 448.878 258.734 447.393 258.381L423.763 252.774C422.023 252.361 421.028 250.527 421.632 248.843L454.561 157.013C455.262 155.058 453.813 153 451.737 153H351C349.343 153 348 151.657 348 150V136C348 134.343 349.343 133 351 133H485C486.657 133 488 134.343 488 136V152.976C488 153.323 487.94 153.667 487.822 153.993L450.908 256.479Z" fill="#C97054" shape-rendering="crispEdges"/>
<path d="M417.1 285.505C417.613 284.076 419.114 283.256 420.594 283.595L445.154 289.232C446.925 289.638 447.931 291.513 447.291 293.213L415.731 377.057C415.291 378.226 414.173 379 412.924 379H387.766C385.689 379 384.24 376.94 384.943 374.985L417.1 285.505Z" fill="#C97054" shape-rendering="crispEdges"/>
<path d="M207 238.781C207 236.848 208.8 235.42 210.682 235.859L234.682 241.459C236.039 241.776 237 242.986 237 244.381V356C237 357.657 238.343 359 240 359H344C345.657 359 347 360.343 347 362V376C347 377.657 345.657 379 344 379H210C208.343 379 207 377.657 207 376V238.781Z" fill="#C97054" shape-rendering="crispEdges"/>
<path d="M207 136C207 134.343 208.343 133 210 133H234C235.657 133 237 134.343 237 136V208.095C237 210.066 235.132 211.502 233.227 210.994L209.227 204.594C207.914 204.244 207 203.054 207 201.695V136Z" fill="#C97054" shape-rendering="crispEdges"/>
<path d="M134 185.619C134 187.014 134.961 188.224 136.318 188.541L160.318 194.141C162.2 194.58 164 193.152 164 191.219V136C164 134.343 162.657 133 161 133H137C135.343 133 134 134.343 134 136V185.619Z" fill="#C97054" shape-rendering="crispEdges"/>
<path d="M134 221.905C134 219.934 135.868 218.498 137.773 219.006L161.773 225.406C163.086 225.756 164 226.946 164 228.305V376C164 377.657 162.657 379 161 379H137C135.343 379 134 377.657 134 376V282C134 280.343 132.657 279 131 279H57C55.3431 279 54 280.343 54 282V376C54 377.657 52.6569 379 51 379H27C25.3431 379 24 377.657 24 376V197.781C24 195.848 25.8 194.42 27.6817 194.859L51.6817 200.459C53.0395 200.776 54 201.986 54 203.381V256C54 257.657 55.3431 259 57 259H131C132.657 259 134 257.657 134 256V221.905Z" fill="#C97054" shape-rendering="crispEdges"/>
<path d="M24 136C24 134.343 25.3431 133 27 133H51C52.6569 133 54 134.343 54 136V166.219C54 168.152 52.2 169.58 50.3183 169.141L26.3183 163.541C24.9605 163.224 24 162.014 24 160.619V136Z" fill="#C97054" shape-rendering="crispEdges"/>
<path d="M450.908 256.479C450.391 257.915 448.878 258.734 447.393 258.381L423.763 252.774C422.023 252.361 421.028 250.527 421.632 248.843L454.561 157.013C455.262 155.058 453.813 153 451.737 153H351C349.343 153 348 151.657 348 150V136C348 134.343 349.343 133 351 133H485C486.657 133 488 134.343 488 136V152.976C488 153.323 487.94 153.667 487.822 153.993L450.908 256.479Z" stroke="#CA3D11" stroke-opacity="0.54" shape-rendering="crispEdges"/>
<path d="M417.1 285.505C417.613 284.076 419.114 283.256 420.594 283.595L445.154 289.232C446.925 289.638 447.931 291.513 447.291 293.213L415.731 377.057C415.291 378.226 414.173 379 412.924 379H387.766C385.689 379 384.24 376.94 384.943 374.985L417.1 285.505Z" stroke="#CA3D11" stroke-opacity="0.54" shape-rendering="crispEdges"/>
<path d="M207 238.781C207 236.848 208.8 235.42 210.682 235.859L234.682 241.459C236.039 241.776 237 242.986 237 244.381V356C237 357.657 238.343 359 240 359H344C345.657 359 347 360.343 347 362V376C347 377.657 345.657 379 344 379H210C208.343 379 207 377.657 207 376V238.781Z" stroke="#CA3D11" stroke-opacity="0.54" shape-rendering="crispEdges"/>
<path d="M207 136C207 134.343 208.343 133 210 133H234C235.657 133 237 134.343 237 136V208.095C237 210.066 235.132 211.502 233.227 210.994L209.227 204.594C207.914 204.244 207 203.054 207 201.695V136Z" stroke="#CA3D11" stroke-opacity="0.54" shape-rendering="crispEdges"/>
<path d="M134 185.619C134 187.014 134.961 188.224 136.318 188.541L160.318 194.141C162.2 194.58 164 193.152 164 191.219V136C164 134.343 162.657 133 161 133H137C135.343 133 134 134.343 134 136V185.619Z" stroke="#CA3D11" stroke-opacity="0.54" shape-rendering="crispEdges"/>
<path d="M134 221.905C134 219.934 135.868 218.498 137.773 219.006L161.773 225.406C163.086 225.756 164 226.946 164 228.305V376C164 377.657 162.657 379 161 379H137C135.343 379 134 377.657 134 376V282C134 280.343 132.657 279 131 279H57C55.3431 279 54 280.343 54 282V376C54 377.657 52.6569 379 51 379H27C25.3431 379 24 377.657 24 376V197.781C24 195.848 25.8 194.42 27.6817 194.859L51.6817 200.459C53.0395 200.776 54 201.986 54 203.381V256C54 257.657 55.3431 259 57 259H131C132.657 259 134 257.657 134 256V221.905Z" stroke="#CA3D11" stroke-opacity="0.54" shape-rendering="crispEdges"/>
<path d="M24 136C24 134.343 25.3431 133 27 133H51C52.6569 133 54 134.343 54 136V166.219C54 168.152 52.2 169.58 50.3183 169.141L26.3183 163.541C24.9605 163.224 24 162.014 24 160.619V136Z" stroke="#CA3D11" stroke-opacity="0.54" shape-rendering="crispEdges"/>
</g>
<g filter="url(#filter1_f_3_165)">
<line x1="11.091" y1="179.12" x2="503.091" y2="289.12" stroke="black" stroke-opacity="0.42" stroke-width="10"/>
</g>
<defs>
<filter id="filter0_d_3_165" x="19.5" y="132.5" width="473" height="255" filterUnits="userSpaceOnUse" color-interpolation-filters="sRGB">
<feFlood flood-opacity="0" result="BackgroundImageFix"/>
<feColorMatrix in="SourceAlpha" type="matrix" values="0 0 0 0 0 0 0 0 0 0 0 0 0 0 0 0 0 0 127 0" result="hardAlpha"/>
<feOffset dy="4"/>
<feGaussianBlur stdDeviation="2"/>
<feComposite in2="hardAlpha" operator="out"/>
<feColorMatrix type="matrix" values="0 0 0 0 0 0 0 0 0 0 0 0 0 0 0 0 0 0 0.48 0"/>
<feBlend mode="normal" in2="BackgroundImageFix" result="effect1_dropShadow_3_165"/>
<feBlend mode="normal" in="SourceGraphic" in2="effect1_dropShadow_3_165" result="shape"/>
</filter>
<filter id="filter1_f_3_165" x="6" y="170.241" width="502.182" height="127.759" filterUnits="userSpaceOnUse" color-interpolation-filters="sRGB">
<feFlood flood-opacity="0" result="BackgroundImageFix"/>
<feBlend mode="normal" in="SourceGraphic" in2="BackgroundImageFix" result="shape"/>
<feGaussianBlur stdDeviation="2" result="effect1_foregroundBlur_3_165"/>
</filter>
</defs>
</svg>
