<svg width="512" height="512" viewBox="0 0 512 512" fill="none" xmlns="http://www.w3.org/2000/svg">
<g clip-path="url(#clip0_3_85)">
<rect y="3.25894" width="513" height="508.741" rx="100" fill="#27536C"/>
<g filter="url(#filter0_d_3_85)">
<path d="M451.789 259.097C451.27 260.527 449.763 261.341 448.283 260.993L424.601 255.42C422.854 255.009 421.857 253.167 422.467 251.48L455.437 160.299C456.144 158.343 454.695 156.279 452.616 156.279H351.68C350.023 156.279 348.68 154.936 348.68 153.279V139.406C348.68 137.749 350.023 136.406 351.68 136.406H485.953C487.61 136.406 488.953 137.749 488.953 139.406V156.248C488.953 156.597 488.892 156.943 488.773 157.272L451.789 259.097Z" fill="#C97054" shape-rendering="crispEdges"/>
<path d="M417.914 287.942C418.429 286.519 419.924 285.703 421.4 286.039L446.013 291.641C447.79 292.046 448.799 293.928 448.152 295.631L416.545 378.905C416.103 380.07 414.987 380.84 413.74 380.84H388.527C386.447 380.84 384.998 378.774 385.707 376.818L417.914 287.942Z" fill="#C97054" shape-rendering="crispEdges"/>
<path d="M207.404 241.53C207.404 239.6 209.2 238.172 211.081 238.607L235.139 244.175C236.5 244.489 237.463 245.701 237.463 247.097V357.968C237.463 359.624 238.806 360.968 240.463 360.968H344.678C346.335 360.968 347.678 362.311 347.678 363.968V377.84C347.678 379.497 346.335 380.84 344.678 380.84H210.404C208.747 380.84 207.404 379.497 207.404 377.84V241.53Z" fill="#C97054" shape-rendering="crispEdges"/>
<path d="M207.404 139.406C207.404 137.749 208.747 136.406 210.404 136.406H234.463C236.12 136.406 237.463 137.749 237.463 139.406V211.007C237.463 212.975 235.599 214.41 233.696 213.907L209.637 207.545C208.321 207.197 207.404 206.006 207.404 204.644V139.406Z" fill="#C97054" shape-rendering="crispEdges"/>
<path d="M134.262 188.671C134.262 190.067 135.225 191.279 136.585 191.594L160.644 197.161C162.524 197.596 164.32 196.168 164.32 194.238V139.406C164.32 137.749 162.977 136.406 161.32 136.406H137.262C135.605 136.406 134.262 137.749 134.262 139.406V188.671Z" fill="#C97054" shape-rendering="crispEdges"/>
<path d="M134.262 224.761C134.262 222.793 136.126 221.358 138.029 221.861L162.087 228.224C163.404 228.572 164.32 229.762 164.32 231.124V377.84C164.32 379.497 162.977 380.84 161.32 380.84H137.262C135.605 380.84 134.262 379.497 134.262 377.84V284.477C134.262 282.82 132.919 281.477 131.262 281.477H57.1055C55.4486 281.477 54.1055 282.82 54.1055 284.477V377.84C54.1055 379.497 52.7623 380.84 51.1055 380.84H27.0469C25.39 380.84 24.0469 379.497 24.0469 377.84V200.791C24.0469 198.861 25.8429 197.433 27.7232 197.868L51.7818 203.435C53.1421 203.75 54.1055 204.962 54.1055 206.358V258.604C54.1055 260.261 55.4486 261.604 57.1055 261.604H131.262C132.919 261.604 134.262 260.261 134.262 258.604V224.761Z" fill="#C97054" shape-rendering="crispEdges"/>
<path d="M24.0469 139.406C24.0469 137.749 25.39 136.406 27.0469 136.406H51.1055C52.7623 136.406 54.1055 137.749 54.1055 139.406V169.397C54.1055 171.327 52.3095 172.755 50.4292 172.32L26.3706 166.753C25.0102 166.438 24.0469 165.226 24.0469 163.83V139.406Z" fill="#C97054" shape-rendering="crispEdges"/>
<path d="M451.789 259.097C451.27 260.527 449.763 261.341 448.283 260.993L424.601 255.42C422.854 255.009 421.857 253.167 422.467 251.48L455.437 160.299C456.144 158.343 454.695 156.279 452.616 156.279H351.68C350.023 156.279 348.68 154.936 348.68 153.279V139.406C348.68 137.749 350.023 136.406 351.68 136.406H485.953C487.61 136.406 488.953 137.749 488.953 139.406V156.248C488.953 156.597 488.892 156.943 488.773 157.272L451.789 259.097Z" stroke="#CA3D11" stroke-opacity="0.54" shape-rendering="crispEdges"/>
<path d="M417.914 287.942C418.429 286.519 419.924 285.703 421.4 286.039L446.013 291.641C447.79 292.046 448.799 293.928 448.152 295.631L416.545 378.905C416.103 380.07 414.987 380.84 413.74 380.84H388.527C386.447 380.84 384.998 378.774 385.707 376.818L417.914 287.942Z" stroke="#CA3D11" stroke-opacity="0.54" shape-rendering="crispEdges"/>
<path d="M207.404 241.53C207.404 239.6 209.2 238.172 211.081 238.607L235.139 244.175C236.5 244.489 237.463 245.701 237.463 247.097V357.968C237.463 359.624 238.806 360.968 240.463 360.968H344.678C346.335 360.968 347.678 362.311 347.678 363.968V377.84C347.678 379.497 346.335 380.84 344.678 380.84H210.404C208.747 380.84 207.404 379.497 207.404 377.84V241.53Z" stroke="#CA3D11" stroke-opacity="0.54" shape-rendering="crispEdges"/>
<path d="M207.404 139.406C207.404 137.749 208.747 136.406 210.404 136.406H234.463C236.12 136.406 237.463 137.749 237.463 139.406V211.007C237.463 212.975 235.599 214.41 233.696 213.907L209.637 207.545C208.321 207.197 207.404 206.006 207.404 204.644V139.406Z" stroke="#CA3D11" stroke-opacity="0.54" shape-rendering="crispEdges"/>
<path d="M134.262 188.671C134.262 190.067 135.225 191.279 136.585 191.594L160.644 197.161C162.524 197.596 164.32 196.168 164.32 194.238V139.406C164.32 137.749 162.977 136.406 161.32 136.406H137.262C135.605 136.406 134.262 137.749 134.262 139.406V188.671Z" stroke="#CA3D11" stroke-opacity="0.54" shape-rendering="crispEdges"/>
<path d="M134.262 224.761C134.262 222.793 136.126 221.358 138.029 221.861L162.087 228.224C163.404 228.572 164.32 229.762 164.32 231.124V377.84C164.32 379.497 162.977 380.84 161.32 380.84H137.262C135.605 380.84 134.262 379.497 134.262 377.84V284.477C134.262 282.82 132.919 281.477 131.262 281.477H57.1055C55.4486 281.477 54.1055 282.82 54.1055 284.477V377.84C54.1055 379.497 52.7623 380.84 51.1055 380.84H27.0469C25.39 380.84 24.0469 379.497 24.0469 377.84V200.791C24.0469 198.861 25.8429 197.433 27.7232 197.868L51.7818 203.435C53.1421 203.75 54.1055 204.962 54.1055 206.358V258.604C54.1055 260.261 55.4486 261.604 57.1055 261.604H131.262C132.919 261.604 134.262 260.261 134.262 258.604V224.761Z" stroke="#CA3D11" stroke-opacity="0.54" shape-rendering="crispEdges"/>
<path d="M24.0469 139.406C24.0469 137.749 25.39 136.406 27.0469 136.406H51.1055C52.7623 136.406 54.1055 137.749 54.1055 139.406V169.397C54.1055 171.327 52.3095 172.755 50.4292 172.32L26.3706 166.753C25.0102 166.438 24.0469 165.226 24.0469 163.83V139.406Z" stroke="#CA3D11" stroke-opacity="0.54" shape-rendering="crispEdges"/>
</g>
<g filter="url(#filter1_f_3_85)">
<line y1="-5" x2="504.933" y2="-5" transform="matrix(0.976291 0.216464 -0.219929 0.975516 10.0195 187.081)" stroke="black" stroke-opacity="0.42" stroke-width="10"/>
</g>
</g>
<defs>
<filter id="filter0_d_3_85" x="19.5469" y="135.906" width="473.906" height="253.434" filterUnits="userSpaceOnUse" color-interpolation-filters="sRGB">
<feFlood flood-opacity="0" result="BackgroundImageFix"/>
<feColorMatrix in="SourceAlpha" type="matrix" values="0 0 0 0 0 0 0 0 0 0 0 0 0 0 0 0 0 0 127 0" result="hardAlpha"/>
<feOffset dy="4"/>
<feGaussianBlur stdDeviation="2"/>
<feComposite in2="hardAlpha" operator="out"/>
<feColorMatrix type="matrix" values="0 0 0 0 0 0 0 0 0 0 0 0 0 0 0 0 0 0 0.48 0"/>
<feBlend mode="normal" in2="BackgroundImageFix" result="effect1_dropShadow_3_85"/>
<feBlend mode="normal" in="SourceGraphic" in2="effect1_dropShadow_3_85" result="shape"/>
</filter>
<filter id="filter1_f_3_85" x="6.01953" y="173.326" width="503.16" height="127.055" filterUnits="userSpaceOnUse" color-interpolation-filters="sRGB">
<feFlood flood-opacity="0" result="BackgroundImageFix"/>
<feBlend mode="normal" in="SourceGraphic" in2="BackgroundImageFix" result="shape"/>
<feGaussianBlur stdDeviation="2" result="effect1_foregroundBlur_3_85"/>
</filter>
<clipPath id="clip0_3_85">
<rect width="512" height="512" fill="white"/>
</clipPath>
</defs>
</svg>
